<?xml version="1.0" encoding="UTF-8" standalone="no"?>
<!-- Created with Inkscape (http://www.inkscape.org/) -->

<svg
   version="1.1"
   id="svg1"
   width="4756.96"
   height="2241.0532"
   viewBox="0 0 4756.96 2241.0532"
   sodipodi:docname="ELITE-LOGO.eps"
   xmlns:inkscape="http://www.inkscape.org/namespaces/inkscape"
   xmlns:sodipodi="http://sodipodi.sourceforge.net/DTD/sodipodi-0.dtd"
   xmlns="http://www.w3.org/2000/svg"
   xmlns:svg="http://www.w3.org/2000/svg">
  <defs
     id="defs1" />
  <sodipodi:namedview
     id="namedview1"
     pagecolor="#ffffff"
     bordercolor="#000000"
     borderopacity="0.25"
     inkscape:showpageshadow="2"
     inkscape:pageopacity="0.0"
     inkscape:pagecheckerboard="0"
     inkscape:deskcolor="#d1d1d1">
    <inkscape:page
       x="0"
       y="0"
       inkscape:label="1"
       id="page1"
       width="4756.96"
       height="2241.0532"
       margin="0"
       bleed="0" />
  </sodipodi:namedview>
  <g
     id="g1"
     inkscape:groupmode="layer"
     inkscape:label="1">
    <g
       id="group-R5">
      <path
         id="path2"
         d="m 22723.5,1400 h -6.3 c 8.4,0 15.7,-5.2 18.8,-12.5 0,8.3 -4.2,12.5 -12.5,12.5"
         style="fill:#dfa665;fill-opacity:1;fill-rule:nonzero;stroke:none"
         transform="matrix(0.13333333,0,0,-0.13333333,0,2241.0533)" />
      <path
         id="path3"
         d="m 27041.4,1387.5 v -234.1 c 0,-9.4 -4.2,-13.6 -12.5,-13.6 h -1043.8 c -11.4,0 -20.8,-9.3 -20.8,-20.8 V 859.902 c 0,-10.402 5.2,-15.601 13.5,-15.601 h 733.7 c 8.3,0 14.6,-6.301 14.6,-14.598 V 598.699 c 0,-8.398 -6.3,-14.597 -14.6,-14.597 h -733.7 c -7.3,0 -13.5,-6.301 -13.5,-13.5 v -259.2 c 0,-6.199 2.1,-11.402 6.2,-15.601 2.1,-3.098 6.3,-5.199 10.4,-5.199 h 1048 c 8.3,0 12.5,-4.102 12.5,-12.5 V 42.9023 c 0,-8.3007 -4.2,-12.5 -12.5,-12.5 H 25727 c -15.6,0 -22.9,6.3008 -22.9,20.8985 V 1379.2 c 0,14.6 7.3,20.8 22.9,20.8 h 1295.7 c 8.3,0 15.6,-5.2 18.7,-12.5"
         style="fill:#dfa665;fill-opacity:1;fill-rule:nonzero;stroke:none"
         transform="matrix(0.13333333,0,0,-0.13333333,0,2241.0533)" />
      <path
         id="path4"
         d="m 9637.12,109.203 c 0,-3.801 -2.27,-6.902 -6.8,-9.4022 -53,-25.1992 -117,-48 -192,-68.7969 C 9363.25,10.4023 9280.07,0 9188.71,0 9087.18,0 8986.53,13.8008 8886.72,41.4023 8786.84,69 8697.19,111.102 8617.66,167.5 8538.12,224 8473.57,295.801 8423.94,383 c -49.7,87.199 -74.45,189.801 -74.45,307.801 0,101.699 14.09,190.398 42.28,266.402 28.18,75.897 65.44,141.397 111.71,196.697 46.19,55.2 98.64,100.7 157.35,136.5 58.64,35.7 118.44,64.2 179.35,85.6 60.91,21.3 120.64,36.1 179.35,44.2 58.64,8.2 110.54,12.3 155.64,12.3 98.16,0 185.81,-8.8 263.15,-26.4 77.2,-17.6 141.26,-35.1 192,-52.7 4.53,-2.5 6.8,-6.3 6.8,-11.3 l 16.91,-259.8 c 0,-8.7 -3.37,-13.1 -10.17,-13.1 -1.1,0 -1.99,0.3 -2.54,0.9 -0.55,0.6 -1.45,1 -2.55,1 -13.54,6.2 -34.99,15 -64.27,26.3 -29.36,11.3 -64.28,22.6 -104.91,33.9 -40.62,11.3 -85.72,21 -135.35,29.2 -49.63,8.1 -102.7,12.2 -159.07,12.2 -76.72,0 -150.55,-11.6 -221.63,-34.8 -71.08,-23.3 -134.26,-56.2 -189.53,-98.8 -55.27,-42.698 -99.26,-93.498 -131.98,-152.498 -32.73,-59 -49.09,-124.301 -49.09,-195.801 0,-56.5 10.18,-106.301 30.46,-149.602 20.34,-43.297 47.08,-81 80.43,-112.996 33.2,-32.004 71.01,-58.703 113.35,-80 42.28,-21.301 86,-38.601 131.1,-51.703 45.09,-13.199 89.43,-22.598 132.81,-28.297 43.45,-5.601 82.63,-8.402 117.62,-8.402 50.73,0 100.09,5.301 148.07,16 47.92,10.601 91.64,23.199 131.1,37.601 39.45,14.399 74.72,29.5 105.79,45.2 31.01,15.601 55,28.5 71.91,38.601 1.1,0 1.92,0.199 2.54,0.899 0.55,0.597 1.38,1 2.54,1 9.01,0 12.38,-4.5 10.11,-13.2 l -23.65,-276.699"
         style="fill:#dfa665;fill-opacity:1;fill-rule:nonzero;stroke:none"
         transform="matrix(0.13333333,0,0,-0.13333333,0,2241.0533)" />
      <path
         id="path5"
         d="m 10576.2,530.801 h 507.6 c 3.4,0 5.9,1.601 7.6,4.699 1.7,3.102 1.4,6 -0.8,8.5 l -255.6,568.5 c -2.2,6.2 -5,6.2 -8.4,0 L 10569.4,544 c -2.2,-8.801 0,-13.199 6.8,-13.199 z m -489,-480.0002 604,1343.9992 c 4.6,5 8.5,7.5 11.9,7.5 h 253.8 c 5.6,0 9.6,-2.5 11.9,-7.5 L 11574.5,50.8008 c 2.2,-5 1.9,-10 -0.9,-15 -2.8,-5.0977 -6.4,-7.5977 -11,-7.5977 h -231.8 c -5.6,0 -9.5,3.1992 -11.8,9.3985 l -101.5,225.9024 c -2.3,5 -6.2,7.598 -11.9,7.598 h -751.3 c -4.4,0 -7.9,-2.598 -10.1,-7.598 L 10342.7,37.6016 c -3.4,-6.1993 -7.4,-9.3985 -11.8,-9.3985 H 10099 c -5.6,0 -9.5,2.5 -11.8,7.5977 -2.3,5 -2.3,10 0,15"
         style="fill:#dfa665;fill-opacity:1;fill-rule:nonzero;stroke:none"
         transform="matrix(0.13333333,0,0,-0.13333333,0,2241.0533)" />
      <path
         id="path6"
         d="m 12276.7,813.203 h 717.4 c 18,0 36.1,2.797 54.1,8.399 18,5.699 34.4,14.5 49.1,26.398 14.6,11.902 26.5,27.301 35.5,46.102 9,18.898 13.5,40.8 13.5,65.898 0,25.102 -4.2,48.6 -12.7,70.6 -8.4,21.9 -20,41.1 -34.6,57.4 -14.7,16.3 -31.1,29.5 -49.1,39.5 -18.1,10.1 -36.7,15.1 -55.8,15.1 h -717.4 c -6.8,0 -10.2,-3.8 -10.2,-11.3 V 824.5 c 0,-7.5 3.4,-11.297 10.2,-11.297 z M 12033,1391.1 c 0,7.5 3.3,11.2 10.1,11.2 h 951 c 55.2,0 106.2,-12.2 153.1,-36.6 46.8,-24.5 87.4,-57.5 121.8,-98.9 34.4,-41.4 61.5,-88.8 81.2,-142.1 19.8,-53.4 29.7,-108.2 29.7,-164.7 0,-57.699 -9.7,-111 -28.8,-160 -19.2,-48.898 -45.7,-91.598 -79.6,-128 -33.8,-36.398 -74.2,-65 -121,-85.598 -46.8,-20.8 -97.2,-31.8 -151.3,-33 -4.6,0 -5.1,-1.902 -1.8,-5.601 L 13412,45.2031 c 2.2,-2.6015 2.5,-5.7031 0.9,-9.4023 -1.8,-3.8008 -4.3,-5.6992 -7.7,-5.6992 h -274.1 c -2.3,0 -4.5,1.3007 -6.8,3.8007 l -426.4,515.6997 c -2.2,2.601 -4.4,3.8 -6.7,3.8 h -414.5 c -6.8,0 -10.2,-3.8 -10.2,-11.3 V 43.3008 c 0,-7.5 -3.4,-11.3008 -10.2,-11.3008 h -213.2 c -6.8,0 -10.1,3.8008 -10.1,11.3008 V 1391.1"
         style="fill:#dfa665;fill-opacity:1;fill-rule:nonzero;stroke:none"
         transform="matrix(0.13333333,0,0,-0.13333333,0,2241.0533)" />
      <path
         id="path7"
         d="m 14114.2,813.203 h 717.4 c 18.1,0 36.1,2.797 54.1,8.399 18.1,5.699 34.5,14.5 49.1,26.398 14.7,11.902 26.6,27.301 35.6,46.102 9,18.898 13.5,40.8 13.5,65.898 0,25.102 -4.2,48.6 -12.7,70.6 -8.5,21.9 -20,41.1 -34.7,57.4 -14.7,16.3 -31,29.5 -49,39.5 -18.1,10.1 -36.7,15.1 -55.9,15.1 h -717.4 c -6.8,0 -10.1,-3.8 -10.1,-11.3 V 824.5 c 0,-7.5 3.3,-11.297 10.1,-11.297 z m -243.7,577.897 c 0,7.5 3.4,11.2 10.2,11.2 h 950.9 c 55.3,0 106.3,-12.2 153.1,-36.6 46.9,-24.5 87.5,-57.5 121.9,-98.9 34.4,-41.4 61.5,-88.8 81.2,-142.1 19.7,-53.4 29.6,-108.2 29.6,-164.7 0,-57.699 -9.6,-111 -28.8,-160 -19.1,-48.898 -45.6,-91.598 -79.5,-128 -33.8,-36.398 -74.2,-65 -121,-85.598 -46.8,-20.8 -97.3,-31.8 -151.4,-33 -4.5,0 -5.1,-1.902 -1.7,-5.601 l 414.5,-502.5979 c 2.3,-2.6015 2.6,-5.7031 0.9,-9.4023 -1.7,-3.8008 -4.2,-5.6992 -7.6,-5.6992 h -274.1 c -2.3,0 -4.5,1.3007 -6.8,3.8007 l -426.4,515.6997 c -2.3,2.601 -4.5,3.8 -6.7,3.8 h -414.6 c -6.8,0 -10.1,-3.8 -10.1,-11.3 V 43.3008 c 0,-7.5 -3.4,-11.3008 -10.2,-11.3008 h -213.2 c -6.8,0 -10.2,3.8008 -10.2,11.3008 V 1391.1"
         style="fill:#dfa665;fill-opacity:1;fill-rule:nonzero;stroke:none"
         transform="matrix(0.13333333,0,0,-0.13333333,0,2241.0533)" />
      <path
         id="path8"
         d="m 16440.7,1172.7 c -74.4,0 -144.1,-11.9 -209,-35.7 -64.9,-23.9 -121.5,-56.5 -170,-97.9 -48.5,-41.498 -86.9,-89.799 -115,-144.998 -28.3,-55.2 -42.4,-114.2 -42.4,-176.899 0,-62.801 14.1,-122.101 42.4,-177.902 28.1,-55.899 66.5,-104.5 115,-145.899 48.5,-41.402 105.1,-74 170,-97.902 64.9,-23.797 134.6,-35.699 209,-35.699 74.5,0 144.1,11.902 209,35.699 64.8,23.902 121.8,56.5 170.9,97.902 49,41.399 87.6,90 115.9,145.899 28.2,55.801 42.3,115.101 42.3,177.902 0,62.699 -14.1,121.699 -42.3,176.899 -28.3,55.199 -66.9,103.5 -115.9,144.998 -49.1,41.4 -106.1,74 -170.9,97.9 -64.9,23.8 -134.5,35.7 -209,35.7 z m 0,-1172.7 c -53,0 -108.9,7.20313 -167.5,21.6016 -58.6,14.5 -116.5,35.5 -173.4,63.1015 -57,27.5979 -111.4,61.7969 -163.3,102.5979 -51.9,40.801 -97.6,87.801 -137.1,141.203 -39.4,53.297 -70.8,112.297 -93.9,176.898 -23.1,64.598 -34.6,135.2 -34.6,211.801 0,85.297 11.8,162.098 35.5,230.598 23.7,68.299 55.6,128.899 95.6,181.599 40,52.7 86,98.2 137.9,136.5 51.9,38.2 106.3,69.6 163.2,94.1 57,24.5 114.6,42.7 172.6,54.6 58.1,11.9 113.1,17.9 165,17.9 83.5,0 170.6,-14.5 261.5,-43.3 90.7,-28.9 173.9,-72.8 249.5,-131.8 75.5,-59 137.9,-133.3 187,-223 49.1,-89.798 73.6,-195.498 73.6,-317.197 0,-106.703 -19.5,-204 -58.4,-291.801 -38.9,-87.902 -93,-163.5 -162.4,-226.8 C 16922.1,135.203 16840.6,86.1992 16747,51.8008 16653.3,17.3008 16551.3,0 16440.7,0"
         style="fill:#dfa665;fill-opacity:1;fill-rule:nonzero;stroke:none"
         transform="matrix(0.13333333,0,0,-0.13333333,0,2241.0533)" />
      <path
         id="path9"
         d="m 18395,0 c -99.3,0 -188.7,5.60156 -268.2,16.9023 -79.5,11.3008 -148.4,24.1993 -206.4,38.5977 -58.1,14.4023 -104.4,28.3008 -138.8,41.4023 -34.4,13.1997 -56.7,22.3007 -66.8,27.3007 -3.4,2.5 -5.1,5 -5.1,7.598 l -25.3,289.801 c 0,8.8 2.7,13.199 8.4,13.199 1.1,0 1.9,-0.301 2.6,-0.899 0.5,-0.699 1.3,-1 2.4,-1 15.8,-10 42.4,-24.8 79.6,-44.203 37.2,-19.496 85.1,-38.597 143.8,-57.398 58.6,-18.801 127.5,-35.5 206.4,-49.899 79,-14.402 168.1,-21.601 267.4,-21.601 129.7,0 231.5,16 305.4,48 73.9,32 110.8,74.301 110.8,127 0,18.801 -9,36.699 -27.1,53.699 -18,16.902 -46.8,32 -86.3,45.102 -39.4,13.199 -89.6,23.601 -150.6,31.101 -60.9,7.5 -134.8,11.297 -221.6,11.297 -108.3,0 -200,7.5 -275,22.602 -75,15 -137.6,34.8 -187.8,59.3 -50.2,24.5 -89.6,51.7 -118.4,81.899 -28.8,30.101 -50.2,60.5 -64.3,91.199 -14.1,30.801 -22.8,60 -26.2,87.602 -3.4,27.597 -5.1,50.199 -5.1,67.699 0,89.099 22.3,162.599 66.8,220.299 44.6,57.7 101.8,103.2 171.8,136.4 69.9,33.3 148.6,56.5 236,69.7 87.4,13.2 173.5,19.8 258,19.8 76.7,0 147,-5.4 210.7,-16 63.7,-10.7 119.8,-22.9 168.4,-36.7 48.4,-13.9 88,-27.3 118.4,-40.5 30.5,-13.2 50.2,-22.3 59.2,-27.3 3.4,0 5.1,-2.5 5.1,-7.5 l 16.9,-280.5 c 2.3,-7.5 -0.6,-11.3 -8.5,-11.3 -1.1,0 -1.9,0.3 -2.5,0.9 -0.5,0.7 -1.4,1 -2.5,1 -20.3,13.8 -48.9,29.8 -85.5,48 -36.6,18.2 -79.8,35.4 -129.4,51.7 -49.7,16.3 -104,30.2 -163.3,41.5 -59.2,11.3 -121.5,16.9 -187,16.9 -106,0 -191.7,-6.3 -257.2,-18.8 -65.4,-12.6 -116.1,-27.9 -152.2,-46.1 -36.1,-18.2 -60.1,-38.3 -71.9,-60.3 -11.8,-21.9 -17.8,-42.3 -17.8,-61.199 0,-52.699 39.5,-90.899 118.4,-114.801 79,-23.801 187.3,-35.699 324.9,-35.699 41.7,0 88.5,-1.301 140.4,-3.801 51.9,-2.5 104.9,-8.5 159.1,-17.898 54.1,-9.399 107.1,-22.903 159,-40.5 51.9,-17.602 98.2,-41.7 138.8,-72.403 40.6,-30.797 73.3,-68.699 98.1,-113.898 24.8,-45.199 37.3,-99.098 37.3,-161.899 0,-13.8 -2.3,-34.203 -6.8,-61.199 -4.5,-27 -14.4,-56.203 -29.6,-87.5 -15.3,-31.402 -37.5,-63.402 -66.9,-96 -29.3,-32.703 -68.5,-62.5 -117.5,-89.4022 -49.1,-27 -109.8,-48.8985 -181.9,-65.8985 C 18583.3,8.50391 18496.5,0 18395,0"
         style="fill:#dfa665;fill-opacity:1;fill-rule:nonzero;stroke:none"
         transform="matrix(0.13333333,0,0,-0.13333333,0,2241.0533)" />
      <path
         id="path10"
         d="m 20235.9,0 c -99.3,0 -188.6,5.60156 -268.2,16.9023 -79.5,11.3008 -148.3,24.1993 -206.4,38.5977 -58.1,14.4023 -104.3,28.3008 -138.7,41.4023 -34.5,13.1997 -56.7,22.3007 -66.8,27.3007 -3.4,2.5 -5.1,5 -5.1,7.598 l -25.4,289.801 c 0,8.8 2.8,13.199 8.5,13.199 1.1,0 1.9,-0.301 2.5,-0.899 0.6,-0.699 1.4,-1 2.5,-1 15.8,-10 42.3,-24.8 79.6,-44.203 37.2,-19.496 85.1,-38.597 143.8,-57.398 58.6,-18.801 127.4,-35.5 206.4,-49.899 79,-14.402 168,-21.601 267.3,-21.601 129.7,0 231.5,16 305.4,48 73.9,32 110.8,74.301 110.8,127 0,18.801 -9,36.699 -27,53.699 -18,16.902 -46.8,32 -86.3,45.102 -39.5,13.199 -89.7,23.601 -150.6,31.101 -60.9,7.5 -134.8,11.297 -221.7,11.297 -108.2,0 -199.9,7.5 -274.9,22.602 -75,15 -137.7,34.8 -187.8,59.3 -50.2,24.5 -89.7,51.7 -118.4,81.899 -28.8,30.101 -50.3,60.5 -64.4,91.199 -14,30.801 -22.8,60 -26.1,87.602 -3.5,27.597 -5.1,50.199 -5.1,67.699 0,89.099 22.2,162.599 66.8,220.299 44.5,57.7 101.8,103.2 171.7,136.4 70,33.3 148.6,56.5 236.1,69.7 87.3,13.2 173.4,19.8 258,19.8 76.7,0 146.9,-5.4 210.7,-16 63.7,-10.7 119.8,-22.9 168.3,-36.7 48.5,-13.9 88,-27.3 118.5,-40.5 30.4,-13.2 50.1,-22.3 59.1,-27.3 3.5,0 5.1,-2.5 5.1,-7.5 L 20801,1024 c 2.3,-7.5 -0.5,-11.3 -8.4,-11.3 -1.1,0 -1.9,0.3 -2.6,0.9 -0.5,0.7 -1.3,1 -2.4,1 -20.4,13.8 -48.8,29.8 -85.5,48 -36.7,18.2 -79.9,35.4 -129.4,51.7 -49.7,16.3 -104.1,30.2 -163.4,41.5 -59.1,11.3 -121.5,16.9 -186.9,16.9 -106,0 -191.8,-6.3 -257.2,-18.8 -65.4,-12.6 -116.2,-27.9 -152.3,-46.1 -36.1,-18.2 -60.1,-38.3 -71.9,-60.3 -11.8,-21.9 -17.7,-42.3 -17.7,-61.199 0,-52.699 39.4,-90.899 118.4,-114.801 79,-23.801 187.2,-35.699 324.8,-35.699 41.8,0 88.6,-1.301 140.5,-3.801 51.9,-2.5 104.9,-8.5 159.1,-17.898 54.1,-9.399 107.1,-22.903 159,-40.5 51.9,-17.602 98.1,-41.7 138.8,-72.403 40.6,-30.797 73.2,-68.699 98.1,-113.898 24.8,-45.199 37.2,-99.098 37.2,-161.899 0,-13.8 -2.3,-34.203 -6.7,-61.199 -4.6,-27 -14.5,-56.203 -29.7,-87.5 -15.2,-31.402 -37.5,-63.402 -66.8,-96 -29.3,-32.703 -68.5,-62.5 -117.6,-89.4022 -49.1,-27 -109.7,-48.8985 -181.9,-65.8985 C 20424.3,8.50391 20337.4,0 20235.9,0"
         style="fill:#dfa665;fill-opacity:1;fill-rule:nonzero;stroke:none"
         transform="matrix(0.13333333,0,0,-0.13333333,0,2241.0533)" />
      <path
         id="path11"
         d="m 23366.2,813.203 h 717.4 c 18,0 36.1,2.797 54.1,8.399 18.1,5.699 34.5,14.5 49.1,26.398 14.6,11.902 26.5,27.301 35.5,46.102 9,18.898 13.6,40.8 13.6,65.898 0,25.102 -4.3,48.6 -12.7,70.6 -8.5,21.9 -20,41.1 -34.7,57.4 -14.7,16.3 -31.1,29.5 -49.1,39.5 -18,10.1 -36.6,15.1 -55.8,15.1 h -717.4 c -6.8,0 -10.2,-3.8 -10.2,-11.3 V 824.5 c 0,-7.5 3.4,-11.297 10.2,-11.297 z m -243.7,577.897 c 0,7.5 3.4,11.2 10.2,11.2 h 950.9 c 55.3,0 106.3,-12.2 153.1,-36.6 46.8,-24.5 87.4,-57.5 121.8,-98.9 34.5,-41.4 61.5,-88.8 81.3,-142.1 19.7,-53.4 29.6,-108.2 29.6,-164.7 0,-57.699 -9.6,-111 -28.8,-160 -19.2,-48.898 -45.7,-91.598 -79.5,-128 -33.9,-36.398 -74.2,-65 -121,-85.598 -46.8,-20.8 -97.3,-31.8 -151.4,-33 -4.5,0 -5.1,-1.902 -1.7,-5.601 l 414.5,-502.5979 c 2.3,-2.6015 2.5,-5.7031 0.9,-9.4023 -1.7,-3.8008 -4.3,-5.6992 -7.6,-5.6992 h -274.2 c -2.3,0 -4.5,1.3007 -6.7,3.8007 l -426.4,515.6997 c -2.3,2.601 -4.5,3.8 -6.8,3.8 h -414.5 c -6.8,0 -10.2,-3.8 -10.2,-11.3 V 43.3008 c 0,-7.5 -3.3,-11.3008 -10.1,-11.3008 h -213.2 c -6.8,0 -10.2,3.8008 -10.2,11.3008 V 1391.1"
         style="fill:#dfa665;fill-opacity:1;fill-rule:nonzero;stroke:none"
         transform="matrix(0.13333333,0,0,-0.13333333,0,2241.0533)" />
      <path
         id="path12"
         d="m 24968.5,30.1016 c -7.9,0 -11.8,4.3984 -11.8,13.1992 V 1389.2 c 0,8.7 3.9,13.1 11.8,13.1 h 209.8 c 7.9,0 11.8,-4.4 11.8,-13.1 V 43.3008 c 0,-8.8008 -3.9,-13.1992 -11.8,-13.1992 h -209.8"
         style="fill:#dfa665;fill-opacity:1;fill-rule:nonzero;stroke:none"
         transform="matrix(0.13333333,0,0,-0.13333333,0,2241.0533)" />
      <path
         id="path13"
         d="m 22736,1387.5 v -234.1 c 0,-9.4 -4.2,-13.6 -12.5,-13.6 h -1043.8 c -11.5,0 -20.8,-9.3 -20.8,-20.8 V 859.902 c 0,-10.402 5.2,-15.601 13.5,-15.601 h 733.7 c 8.3,0 14.5,-6.301 14.5,-14.598 V 598.699 c 0,-8.398 -6.2,-14.597 -14.5,-14.597 h -733.7 c -7.3,0 -13.5,-6.301 -13.5,-13.5 v -259.2 c 0,-6.199 2,-11.402 6.2,-15.601 2.1,-3.098 6.3,-5.199 10.4,-5.199 h 1048 c 8.3,0 12.5,-4.102 12.5,-12.5 V 42.9023 c 0,-8.3007 -4.2,-12.5 -12.5,-12.5 h -1301.9 c -15.6,0 -22.9,6.3008 -22.9,20.8985 V 1379.2 c 0,14.6 7.3,20.8 22.9,20.8 h 1295.6 c 8.4,0 15.7,-5.2 18.8,-12.5"
         style="fill:#dfa665;fill-opacity:1;fill-rule:nonzero;stroke:none"
         transform="matrix(0.13333333,0,0,-0.13333333,0,2241.0533)" />
      <path
         id="path14"
         d="m 18406.6,3091.3 h -1708 v 7136.1 h 1708 V 3091.3"
         style="fill:#2f456d;fill-opacity:1;fill-rule:nonzero;stroke:none"
         transform="matrix(0.13333333,0,0,-0.13333333,0,2241.0533)" />
      <path
         id="path15"
         d="m 14991.7,4026 c -105.4,-127.5 -486.8,-174.8 -682.5,-178.9 h -4207.1 c -34.8,0 -63.1,28.3 -63.1,63.1 v 6317.2 H 8349.5 V 3847.1 3091.3 h 1689.5 4900.8 c 43.6,0 79,35.3 79,78.9 v 676.5 0.4 175.3 c 0,10.1 -19.8,12.4 -27.1,3.6"
         style="fill:#2f456d;fill-opacity:1;fill-rule:nonzero;stroke:none"
         transform="matrix(0.13333333,0,0,-0.13333333,0,2241.0533)" />
      <path
         id="path16"
         d="m 27262.2,10212.5 h -7110.3 c -36.1,0 -65.4,-29.3 -65.4,-65.5 v -688.89 -1.47 -174.19 c 0,-10.07 19.7,-12.45 27,-3.57 99.8,120.63 446.5,169.4 649.4,177.76 h 2036.3 c 34.9,0 63.1,-28.25 63.1,-63.1 V 3076.4 h 1689.6 v 6317.14 c 0,34.85 28.2,63.1 63.1,63.1 h 2036.3 c 202.9,-8.36 549.7,-57.13 649.4,-177.76 7.3,-8.88 27,-6.5 27,3.57 v 174.19 1.47 688.89 c 0,36.2 -29.3,65.5 -65.5,65.5"
         style="fill:#2f456d;fill-opacity:1;fill-rule:nonzero;stroke:none"
         transform="matrix(0.13333333,0,0,-0.13333333,0,2241.0533)" />
      <path
         id="path17"
         d="M 35615.8,10227.4 H 29007.6 V 3091.3 h 6608.2 c 33.9,0 61.4,27.5 61.4,61.4 v 694 0.5 175.2 c 0,10.1 -19.7,12.4 -27,3.6 -104.3,-126.2 -478.9,-173.8 -676.4,-178.8 h -4213.1 c -34.8,0 -63.1,28.3 -63.1,63.1 v 2308.3 c 0,34.8 28.3,63.1 63.1,63.1 H 33869 c 185.3,0 599.4,-45.7 709.8,-179.3 7.4,-8.9 27.1,-6.5 27.1,3.6 v 175.7 754.82 0.49 175.17 c 0,10.07 -19.7,12.46 -27.1,3.58 -104.1,-126.04 -478.4,-173.73 -675.9,-178.75 h -3142.2 c -34.8,0 -63.1,28.26 -63.1,63.1 v 2293.43 c 0,34.85 28.3,63.1 63.1,63.1 h 4179.7 c 185.2,0 599.3,-45.64 709.8,-179.24 7.3,-8.88 27,-6.5 27,3.57 v 175.67 709.26 c 0,34 -27.5,61.5 -61.4,61.5"
         style="fill:#2f456d;fill-opacity:1;fill-rule:nonzero;stroke:none"
         transform="matrix(0.13333333,0,0,-0.13333333,0,2241.0533)" />
      <path
         id="path18"
         d="M 6642.57,4026 C 6538.32,3899.8 6163.69,3852.2 5966.19,3847.2 H 1753.15 c -34.83,0 -63.09,28.3 -63.09,63.1 v 2308.3 c 0,34.8 28.26,63.1 63.09,63.1 h 3108.32 c 185.25,0 599.34,-45.7 709.79,-179.3 7.34,-8.9 27.06,-6.5 27.06,3.6 v 175.7 754.82 175.66 c 0,10.07 -19.72,12.46 -27.06,3.58 -104.2,-126.04 -478.35,-173.73 -675.97,-178.75 H 1753.15 c -34.83,0 -63.09,28.26 -63.09,63.1 v 2308.25 c 0,34.85 28.26,63.1 63.09,63.1 h 4187.03 c 188.47,-1.13 593.34,-47.18 702.42,-179.13 7.34,-8.87 27.06,-6.5 27.06,3.58 v 175.66 694.33 c 0,34 -27.52,61.5 -61.44,61.5 H 0 V 3091.3 h 6608.22 c 33.92,0 61.44,27.5 61.44,61.4 v 694 0.5 175.2 c 0,10.1 -19.72,12.4 -27.09,3.6"
         style="fill:#2f456d;fill-opacity:1;fill-rule:nonzero;stroke:none"
         transform="matrix(0.13333333,0,0,-0.13333333,0,2241.0533)" />
      <path
         id="path19"
         d="m 13597,15753.3 c 51.1,-51.2 14.9,-138.6 -57.4,-138.6 H 9211.71 c -63.86,0 -127.73,25.7 -175.25,71.7 l -937.73,922.1 c -74.77,73.2 -22.57,199.4 81.78,199.4 h 4179.89 c 116.5,0 228.2,-46.3 310.6,-128.7 l 926,-925.9"
         style="fill:#dfa665;fill-opacity:1;fill-rule:nonzero;stroke:none"
         transform="matrix(0.13333333,0,0,-0.13333333,0,2241.0533)" />
      <path
         id="path20"
         d="m 17118.6,12843.6 c 51.1,-51.1 14.9,-138.5 -57.4,-138.5 h -4696 c -63.9,0 -127.8,25.7 -175.3,71.6 l -937.7,922.2 c -74.8,73.2 -22.6,199.4 81.8,199.4 h 4548 c 116.5,0 228.2,-46.3 310.6,-128.7 l 926,-926"
         style="fill:#dfa665;fill-opacity:1;fill-rule:nonzero;stroke:none"
         transform="matrix(0.13333333,0,0,-0.13333333,0,2241.0533)" />
      <path
         id="path21"
         d="m 15222.4,14439.8 c 51.2,-51.1 15,-138.6 -57.3,-138.6 h -3048.8 c -61.5,0 -121.5,19.5 -165.9,54.6 l -933.1,740.6 c -52.9,42.1 -16.3,115.3 58.5,115.3 h 3192.8 c 116.5,0 228.2,-46.3 310.6,-128.6 l 643.2,-643.3"
         style="fill:#dfa665;fill-opacity:1;fill-rule:nonzero;stroke:none"
         transform="matrix(0.13333333,0,0,-0.13333333,0,2241.0533)" />
      <path
         id="path22"
         d="m 21508.3,15753.3 c -51.2,-51.2 -14.9,-138.6 57.4,-138.6 h 4327.8 c 63.9,0 127.8,25.7 175.3,71.7 l 937.7,922.1 c 74.8,73.2 22.6,199.4 -81.8,199.4 h -4179.8 c -116.5,0 -228.3,-46.3 -310.7,-128.7 l -925.9,-925.9"
         style="fill:#dfa665;fill-opacity:1;fill-rule:nonzero;stroke:none"
         transform="matrix(0.13333333,0,0,-0.13333333,0,2241.0533)" />
      <path
         id="path23"
         d="m 17986.7,12843.6 c -51.2,-51.1 -15,-138.5 57.4,-138.5 h 4696 c 63.8,0 127.7,25.7 175.2,71.6 l 937.8,922.2 c 74.7,73.2 22.5,199.4 -81.8,199.4 h -4548 c -116.5,0 -228.3,-46.3 -310.7,-128.7 l -925.9,-926"
         style="fill:#dfa665;fill-opacity:1;fill-rule:nonzero;stroke:none"
         transform="matrix(0.13333333,0,0,-0.13333333,0,2241.0533)" />
      <path
         id="path24"
         d="m 19882.8,14439.8 c -51.1,-51.1 -14.9,-138.6 57.4,-138.6 H 22989 c 61.5,0 121.5,19.5 165.8,54.6 l 933.1,740.6 c 53,42.1 16.4,115.3 -58.4,115.3 h -3192.8 c -116.5,0 -228.3,-46.3 -310.6,-128.6 l -643.3,-643.3"
         style="fill:#dfa665;fill-opacity:1;fill-rule:nonzero;stroke:none"
         transform="matrix(0.13333333,0,0,-0.13333333,0,2241.0533)" />
    </g>
  </g>
</svg>
